<svg id="Layer_1" xmlns="http://www.w3.org/2000/svg" viewBox="0 0 566.93 283.46" height="100px" width="100px" transform="rotate(0) scale(1, 1)">
  <defs>
    <style>.cls-1 { fill: #ffffff; }</style>
  </defs>
  <g>
    <path class="cls-1" d="M89.27,168.59h-1.79c-1.82,0-2.73-.97-2.73-2.93v-21.55c0-5.72-1.69-10.16-5.07-13.31-3.38-3.15-8.13-4.73-14.23-4.73-3.97,0-7.37.67-10.19,2-2.83,1.33-5.09,3.09-6.78,5.27-1.1,1.41-2.01,2.93-2.72,4.56-.63,1.41.11,3.06,1.58,3.53l2.18.71c1.29.42,2.69-.22,3.2-1.48.84-2.07,2.06-3.8,3.66-5.18,2.14-1.85,5.13-2.78,8.97-2.78s6.84.98,8.82,2.93,2.98,4.61,2.98,8v3.51h-16.09c-3.38,0-6.44.53-9.17,1.6-2.73,1.08-4.88,2.67-6.44,4.78s-2.34,4.8-2.34,8.05.78,5.88,2.34,8.09c1.56,2.21,3.71,3.9,6.44,5.07,2.73,1.17,5.75,1.76,9.07,1.76s6.01-.44,8.09-1.32c2.08-.87,3.72-1.98,4.93-3.31,1.2-1.34,2.16-2.62,2.87-3.85h1.18v.48c0,2.02.64,3.63,1.95,4.83,1.3,1.2,3.02,1.8,5.16,1.8h4.13c1.44,0,2.6-1.16,2.6-2.6v-1.33c0-1.43-1.16-2.6-2.6-2.6ZM77.15,154.45c0,4.88-1.42,8.66-4.25,11.36-2.82,2.7-6.51,4.05-11.06,4.05-3.26,0-5.9-.75-7.95-2.24-2.05-1.5-3.07-3.58-3.07-6.25s.99-4.66,2.97-6c1.98-1.33,4.5-1.99,7.56-1.99h15.8v1.07Z"/>
    <path class="cls-1" d="M112.25,176.49c-5.92,0-10.91-1.36-14.97-4.1-3.43-2.3-5.71-5.74-6.85-10.31-.36-1.43.51-2.89,1.94-3.22l2.3-.52c1.35-.31,2.71.51,3.08,1.84.56,2,1.36,3.65,2.4,4.94,1.43,1.79,3.2,3.06,5.31,3.8,2.11.75,4.37,1.13,6.78,1.13,3.57,0,6.4-.71,8.48-2.15,2.08-1.43,3.12-3.35,3.12-5.75s-.99-4.21-2.97-5.22c-1.98-1-4.7-1.83-8.14-2.49l-4-.68c-3.06-.52-5.85-1.33-8.38-2.44-2.54-1.1-4.55-2.6-6.05-4.49-1.5-1.88-2.24-4.26-2.24-7.12,0-4.29,1.66-7.64,4.97-10.05,3.32-2.41,7.7-3.61,13.17-3.61s9.77,1.22,13.12,3.66c2.62,1.91,4.51,4.42,5.68,7.53.54,1.44-.31,3.04-1.8,3.43l-2.08.54c-1.34.34-2.67-.44-3.11-1.75-.74-2.2-1.94-3.82-3.6-4.88-2.21-1.39-4.94-2.09-8.19-2.09s-5.82.6-7.7,1.8c-1.89,1.2-2.83,2.97-2.83,5.31s.89,3.95,2.68,5.02c1.79,1.07,4.18,1.87,7.17,2.39l4,.68c3.38.59,6.42,1.38,9.12,2.39,2.7,1.01,4.84,2.45,6.43,4.34,1.59,1.88,2.39,4.36,2.39,7.41,0,4.68-1.74,8.29-5.22,10.83-3.48,2.53-8.14,3.8-13.99,3.8h0Z"/>
    <path class="cls-1" d="M141.22,187.11v-1.62c0-1.44,1.17-2.61,2.61-2.61h24.7c1.88,0,2.83-.98,2.83-2.92v-12.45h-1.36c-.65,1.37-1.64,2.72-2.98,4.05-1.33,1.33-3.07,2.41-5.22,3.22-2.14.81-4.85,1.22-8.1,1.22-3.45,0-6.62-.75-9.51-2.24-2.9-1.5-5.17-3.7-6.83-6.63-1.66-2.93-2.49-6.5-2.49-10.73v-26.36c0-1.44,1.17-2.6,2.61-2.6h2.49c1.44,0,2.61,1.17,2.61,2.6v25.77c0,4.68,1.19,8.09,3.56,10.24,2.37,2.15,5.57,3.22,9.6,3.22,4.55,0,8.29-1.49,11.22-4.48,2.93-2.99,4.39-7.44,4.39-13.36v-21.38c0-1.44,1.17-2.6,2.61-2.6h2.49c1.44,0,2.61,1.17,2.61,2.6v51.29c0,2.6-.73,4.65-2.19,6.14-1.46,1.5-3.59,2.24-6.39,2.24h-26.65c-1.44,0-2.61-1.17-2.61-2.61h0Z"/>
    <path class="cls-1" d="M186.17,172.52v-42.48c0-1.44,1.17-2.6,2.61-2.6h2.3c1.44,0,2.61,1.17,2.61,2.6v5.49h1.36c1.04-2.28,2.81-4.34,5.31-6.19,2.5-1.86,6.19-2.78,11.07-2.78,3.57,0,6.78.75,9.61,2.24,2.83,1.5,5.09,3.71,6.78,6.63,1.69,2.93,2.53,6.53,2.53,10.83v26.26c0,1.44-1.17,2.61-2.61,2.61h-2.49c-1.44,0-2.61-1.17-2.61-2.61v-25.68c0-4.74-1.19-8.19-3.56-10.34-2.37-2.15-5.58-3.22-9.61-3.22-4.62,0-8.37,1.5-11.26,4.49-2.89,2.99-4.34,7.44-4.34,13.36v21.38c0,1.44-1.17,2.61-2.61,2.61h-2.49c-1.44,0-2.61-1.17-2.61-2.61h0Z"/>
    <path class="cls-1" d="M258.92,176.49c-4.62,0-8.76-.99-12.44-2.97-3.67-1.98-6.57-4.83-8.68-8.53-2.12-3.71-3.17-8.1-3.17-13.17v-1.07c0-5.14,1.05-9.54,3.17-13.21,2.11-3.67,5-6.5,8.68-8.49,3.67-1.98,7.82-2.97,12.44-2.97s8.44.85,11.65,2.54c3.22,1.69,5.76,3.93,7.61,6.73,1.31,1.97,2.28,4.04,2.93,6.2.44,1.47-.47,3-1.97,3.31l-2.37.49c-1.33.28-2.65-.52-3.03-1.83-.41-1.44-1.01-2.8-1.8-4.08-1.2-1.95-2.87-3.51-5.02-4.68-2.14-1.17-4.78-1.76-7.9-1.76s-6.03.72-8.53,2.15c-2.5,1.43-4.49,3.48-5.95,6.14-1.46,2.67-2.2,5.85-2.2,9.56v.88c0,3.71.73,6.89,2.2,9.56,1.46,2.67,3.44,4.72,5.95,6.14,2.5,1.43,5.35,2.14,8.53,2.14,4.75,0,8.37-1.24,10.87-3.71,1.95-1.93,3.32-4.22,4.11-6.86.38-1.29,1.72-2.05,3.03-1.76l2.36.51c1.54.33,2.43,1.95,1.91,3.43-.75,2.09-1.77,4.11-3.08,6.05-1.89,2.79-4.44,5.04-7.66,6.73-3.22,1.69-7.1,2.54-11.65,2.54h0Z"/>
  </g>
  <path class="cls-1" d="M372.43,156.3c-2.01,0-3.64.43-4.89,1.3-1.25.87-1.87,2.15-1.87,3.83s.65,2.95,1.95,3.96c1.31,1,3.1,1.5,5.38,1.5,3.1,0,5.63-.88,7.58-2.64,1.96-1.77,2.94-4.15,2.94-7.14v-.81h-11.09ZM433.26,143.42c-2.23-2.17-5.03-3.26-8.4-3.26s-6.18,1.09-8.43,3.26c-2.26,2.17-3.39,5.33-3.39,9.46v.81c0,4.08,1.13,7.21,3.39,9.41,2.25,2.2,5.06,3.31,8.43,3.31s6.24-1.11,8.44-3.31c2.2-2.2,3.3-5.33,3.3-9.41v-.81c0-4.13-1.12-7.29-3.34-9.46ZM433.26,143.42c-2.23-2.17-5.03-3.26-8.4-3.26s-6.18,1.09-8.43,3.26c-2.26,2.17-3.39,5.33-3.39,9.46v.81c0,4.08,1.13,7.21,3.39,9.41,2.25,2.2,5.06,3.31,8.43,3.31s6.24-1.11,8.44-3.31c2.2-2.2,3.3-5.33,3.3-9.41v-.81c0-4.13-1.12-7.29-3.34-9.46ZM372.43,156.3c-2.01,0-3.64.43-4.89,1.3-1.25.87-1.87,2.15-1.87,3.83s.65,2.95,1.95,3.96c1.31,1,3.1,1.5,5.38,1.5,3.1,0,5.63-.88,7.58-2.64,1.96-1.77,2.94-4.15,2.94-7.14v-.81h-11.09ZM372.43,156.3c-2.01,0-3.64.43-4.89,1.3-1.25.87-1.87,2.15-1.87,3.83s.65,2.95,1.95,3.96c1.31,1,3.1,1.5,5.38,1.5,3.1,0,5.63-.88,7.58-2.64,1.96-1.77,2.94-4.15,2.94-7.14v-.81h-11.09ZM433.26,143.42c-2.23-2.17-5.03-3.26-8.4-3.26s-6.18,1.09-8.43,3.26c-2.26,2.17-3.39,5.33-3.39,9.46v.81c0,4.08,1.13,7.21,3.39,9.41,2.25,2.2,5.06,3.31,8.43,3.31s6.24-1.11,8.44-3.31c2.2-2.2,3.3-5.33,3.3-9.41v-.81c0-4.13-1.12-7.29-3.34-9.46ZM433.26,143.42c-2.23-2.17-5.03-3.26-8.4-3.26s-6.18,1.09-8.43,3.26c-2.26,2.17-3.39,5.33-3.39,9.46v.81c0,4.08,1.13,7.21,3.39,9.41,2.25,2.2,5.06,3.31,8.43,3.31s6.24-1.11,8.44-3.31c2.2-2.2,3.3-5.33,3.3-9.41v-.81c0-4.13-1.12-7.29-3.34-9.46ZM372.43,156.3c-2.01,0-3.64.43-4.89,1.3-1.25.87-1.87,2.15-1.87,3.83s.65,2.95,1.95,3.96c1.31,1,3.1,1.5,5.38,1.5,3.1,0,5.63-.88,7.58-2.64,1.96-1.77,2.94-4.15,2.94-7.14v-.81h-11.09ZM503.69,70.06h-190.82c-11.11,0-20.12,9.02-20.12,20.13v103.04c0,11.11,9.01,20.13,20.12,20.13h190.82c11.11,0,20.13-9.02,20.13-20.13v-103.04c0-11.11-9.02-20.13-20.13-20.13ZM347.49,170.66c0,1.52-1.23,2.75-2.75,2.75h-4.28c-1.52,0-2.75-1.23-2.75-2.75v-45.41h-14.28c-1.52,0-2.75-1.24-2.75-2.75v-3.39c0-1.52,1.23-2.75,2.75-2.75h38.34c1.52,0,2.76,1.23,2.76,2.75v3.39c0,1.51-1.24,2.75-2.76,2.75h-14.28v45.41ZM398.27,170.66c0,1.52-1.23,2.75-2.75,2.75h-3.85c-1.96,0-3.56-.48-4.81-1.46s-1.88-2.31-1.88-4v-.16h-1.38c-.33.76-.9,1.69-1.71,2.77-.82,1.09-2.06,2.03-3.71,2.81-1.66.79-3.9,1.19-6.73,1.19s-5.38-.51-7.66-1.51c-2.28-1.01-4.09-2.46-5.42-4.36-1.33-1.9-1.99-4.24-1.99-7.01s.66-5,1.99-6.85c1.33-1.84,3.17-3.25,5.5-4.2,2.34-.95,5-1.42,7.99-1.42h11.66v-2.45c0-2.12-.66-3.84-1.96-5.17-1.3-1.33-3.34-2-6.11-2s-4.77.64-6.16,1.92c-.8.73-1.44,1.59-1.92,2.58-.63,1.27-2.04,1.94-3.38,1.5l-3.26-1.08c-1.59-.52-2.38-2.36-1.6-3.84.54-1.01,1.18-1.97,1.93-2.87,1.44-1.74,3.36-3.14,5.75-4.2,2.39-1.06,5.32-1.59,8.8-1.59,5.27,0,9.41,1.32,12.43,3.95,3.01,2.64,4.52,6.46,4.52,11.45v15.82c0,1.63.76,2.44,2.28,2.44h.68c1.52,0,2.75,1.23,2.75,2.75v2.24ZM445.97,153.93c0,4.35-.84,8.07-2.53,11.17-1.68,3.1-3.91,5.45-6.68,7.05-2.77,1.6-5.81,2.41-9.13,2.41-2.55,0-4.68-.3-6.4-.9-1.71-.6-3.09-1.39-4.15-2.36-1.06-.98-1.89-1.96-2.49-2.94h-1.38v18.6c0,1.52-1.24,2.76-2.76,2.76h-3.87c-1.52,0-2.75-1.24-2.75-2.76v-51.06c0-1.52,1.23-2.75,2.75-2.75h3.71c1.52,0,2.75,1.23,2.75,2.75v2.55h1.39c.92-1.68,2.4-3.18,4.44-4.48,2.04-1.31,4.96-1.96,8.76-1.96,3.26,0,6.29.8,9.09,2.4,2.8,1.61,5.04,3.96,6.72,7.05,1.69,3.1,2.53,6.82,2.53,11.17v1.3ZM459.04,143.67c-.45,0-.91-.09-1.35-.29-1.11-.49-1.84-1.54-1.93-2.75-.11-1.64-.46-3.28-1.07-4.89-.62-1.61-1.45-3.07-2.46-4.37-.45-.58-.67-1.28-.67-1.99,0-.45.09-.91.28-1.34,1-2.21,4.03-2.68,5.52-.77,1.42,1.82,2.59,3.87,3.45,6.13.86,2.26,1.35,4.58,1.5,6.88.13,1.93-1.49,3.39-3.27,3.39ZM477.93,147.98c-.26,1.63-1.69,2.71-3.23,2.71-.45,0-.91-.09-1.35-.29-1.33-.6-2.11-2.01-1.89-3.45.87-5.53.35-11.34-1.77-16.93-2.13-5.58-5.61-10.26-9.94-13.81-.76-.63-1.17-1.55-1.17-2.49,0-.45.09-.91.29-1.34.87-1.96,3.37-2.6,5.03-1.24,5.19,4.24,9.36,9.85,11.91,16.55,2.56,6.7,3.17,13.66,2.12,20.29ZM491.14,154.11c-.36,1.53-1.73,2.52-3.2,2.52-.44,0-.9-.09-1.34-.29-1.41-.63-2.22-2.16-1.86-3.66,2.11-8.91,1.67-18.51-1.83-27.69-3.5-9.19-9.56-16.65-17.06-21.89-.87-.61-1.34-1.6-1.34-2.61,0-.46.1-.93.3-1.37.84-1.87,3.19-2.53,4.87-1.35,8.51,5.97,15.38,14.45,19.36,24.88,3.97,10.44,4.49,21.34,2.1,31.46ZM424.86,140.16c-3.37,0-6.18,1.09-8.43,3.26-2.26,2.17-3.39,5.33-3.39,9.46v.81c0,4.08,1.13,7.21,3.39,9.41,2.25,2.2,5.06,3.31,8.43,3.31s6.24-1.11,8.44-3.31c2.2-2.2,3.3-5.33,3.3-9.41v-.81c0-4.13-1.12-7.29-3.34-9.46-2.23-2.17-5.03-3.26-8.4-3.26ZM367.54,157.6c-1.25.87-1.87,2.15-1.87,3.83s.65,2.95,1.95,3.96c1.31,1,3.1,1.5,5.38,1.5,3.1,0,5.63-.88,7.58-2.64,1.96-1.77,2.94-4.15,2.94-7.14v-.81h-11.09c-2.01,0-3.64.43-4.89,1.3ZM372.43,156.3c-2.01,0-3.64.43-4.89,1.3-1.25.87-1.87,2.15-1.87,3.83s.65,2.95,1.95,3.96c1.31,1,3.1,1.5,5.38,1.5,3.1,0,5.63-.88,7.58-2.64,1.96-1.77,2.94-4.15,2.94-7.14v-.81h-11.09ZM433.26,143.42c-2.23-2.17-5.03-3.26-8.4-3.26s-6.18,1.09-8.43,3.26c-2.26,2.17-3.39,5.33-3.39,9.46v.81c0,4.08,1.13,7.21,3.39,9.41,2.25,2.2,5.06,3.31,8.43,3.31s6.24-1.11,8.44-3.31c2.2-2.2,3.3-5.33,3.3-9.41v-.81c0-4.13-1.12-7.29-3.34-9.46ZM433.26,143.42c-2.23-2.17-5.03-3.26-8.4-3.26s-6.18,1.09-8.43,3.26c-2.26,2.17-3.39,5.33-3.39,9.46v.81c0,4.08,1.13,7.21,3.39,9.41,2.25,2.2,5.06,3.31,8.43,3.31s6.24-1.11,8.44-3.31c2.2-2.2,3.3-5.33,3.3-9.41v-.81c0-4.13-1.12-7.29-3.34-9.46ZM372.43,156.3c-2.01,0-3.64.43-4.89,1.3-1.25.87-1.87,2.15-1.87,3.83s.65,2.95,1.95,3.96c1.31,1,3.1,1.5,5.38,1.5,3.1,0,5.63-.88,7.58-2.64,1.96-1.77,2.94-4.15,2.94-7.14v-.81h-11.09ZM372.43,156.3c-2.01,0-3.64.43-4.89,1.3-1.25.87-1.87,2.15-1.87,3.83s.65,2.95,1.95,3.96c1.31,1,3.1,1.5,5.38,1.5,3.1,0,5.63-.88,7.58-2.64,1.96-1.77,2.94-4.15,2.94-7.14v-.81h-11.09ZM372.43,156.3c-2.01,0-3.64.43-4.89,1.3-1.25.87-1.87,2.15-1.87,3.83s.65,2.95,1.95,3.96c1.31,1,3.1,1.5,5.38,1.5,3.1,0,5.63-.88,7.58-2.64,1.96-1.77,2.94-4.15,2.94-7.14v-.81h-11.09Z"/>
</svg>