<?xml version="1.0" encoding="UTF-8"?>
<svg id="Layer_1" xmlns="http://www.w3.org/2000/svg" xmlns:xlink="http://www.w3.org/1999/xlink" viewBox="0 0 566.93 566.93">
  <defs>
    <style>
      .cls-1 {
        fill: #fff;
      }

      .cls-2 {
        fill: url(#linear-gradient);
      }
    </style>
    <linearGradient id="linear-gradient" x1="54.88" y1="283.46" x2="512.05" y2="283.46" gradientUnits="userSpaceOnUse">
      <stop offset="0" stop-color="#55ad47"/>
      <stop offset="1" stop-color="#0e8642"/>
    </linearGradient>
  </defs>
  <rect class="cls-2" x="54.88" y="141.71" width="457.18" height="283.51" rx="39.82" ry="39.82"/>
  <g>
    <path class="cls-1" d="M404.94,196.52c-3.33-2.33-7.97-1.02-9.64,2.68h0c-1.25,2.78-.43,6.11,2.07,7.86,14.84,10.38,26.83,25.14,33.75,43.31,6.92,18.17,7.79,37.17,3.62,54.79-.7,2.97.9,6,3.68,7.24h0c3.71,1.66,8.05-.45,8.98-4.41,4.72-20.03,3.7-41.6-4.16-62.24-7.86-20.65-21.46-37.43-38.3-49.24Z"/>
    <path class="cls-1" d="M393.51,222.98c-3.27-2.68-8.23-1.41-9.96,2.45h0c-1.18,2.64-.48,5.75,1.75,7.59,8.55,7.02,15.45,16.29,19.65,27.33,4.21,11.05,5.23,22.55,3.51,33.48-.45,2.86,1.1,5.64,3.74,6.83h0c3.86,1.74,8.4-.62,9.06-4.79,2.08-13.1.86-26.87-4.19-40.14-5.05-13.26-13.31-24.35-23.58-32.75Z"/>
    <path class="cls-1" d="M143.84,340.75v-89.86h-28.26c-3.01,0-5.44-2.44-5.44-5.44v-6.69c0-3.01,2.44-5.44,5.44-5.44h75.87c3.01,0,5.44,2.44,5.44,5.44v6.69c0,3.01-2.44,5.44-5.44,5.44h-28.26v89.86c0,3.01-2.44,5.44-5.44,5.44h-8.47c-3.01,0-5.44-2.44-5.44-5.44Z"/>
    <path class="cls-1" d="M210.6,348.45c-5.59,0-10.64-1-15.16-2.98-4.51-1.99-8.09-4.86-10.72-8.63-2.64-3.76-3.95-8.39-3.95-13.87s1.31-9.89,3.95-13.55c2.63-3.65,6.26-6.42,10.88-8.3,4.62-1.88,9.89-2.82,15.8-2.82h23.06v-4.84c0-4.19-1.29-7.6-3.87-10.24-2.58-2.63-6.61-3.95-12.1-3.95s-9.43,1.27-12.17,3.79c-1.58,1.46-2.85,3.16-3.81,5.11-1.23,2.51-4.02,3.84-6.68,2.97l-6.44-2.13c-3.15-1.04-4.73-4.68-3.17-7.6,1.06-2,2.33-3.89,3.82-5.68,2.85-3.44,6.64-6.21,11.37-8.31,4.73-2.1,10.53-3.14,17.41-3.14,10.43,0,18.63,2.61,24.59,7.82,5.97,5.22,8.95,12.77,8.95,22.66v31.28c0,3.22,1.5,4.84,4.51,4.84h1.33c3.01,0,5.44,2.44,5.44,5.44v4.44c0,3.01-2.44,5.44-5.44,5.44h-7.62c-3.87,0-7.04-.97-9.51-2.9-2.47-1.93-3.71-4.57-3.71-7.9v-.32h-2.74c-.64,1.51-1.77,3.33-3.39,5.48-1.61,2.15-4.06,4.01-7.34,5.56-3.28,1.56-7.71,2.34-13.3,2.34ZM213.66,333.29c6.13,0,11.13-1.75,15-5.24,3.87-3.49,5.81-8.2,5.81-14.11v-1.61h-21.93c-3.98,0-7.2.86-9.68,2.58-2.47,1.72-3.71,4.25-3.71,7.58s1.29,5.83,3.87,7.82c2.58,1.99,6.13,2.98,10.64,2.98Z"/>
    <path class="cls-1" d="M274.66,373v-101.03c0-3.01,2.44-5.44,5.44-5.44h7.34c3.01,0,5.44,2.44,5.44,5.44v5.04h2.74c1.83-3.33,4.76-6.29,8.79-8.87,4.03-2.58,9.81-3.87,17.34-3.87,6.45,0,12.44,1.59,17.98,4.76,5.53,3.17,9.97,7.82,13.3,13.95,3.33,6.13,5,13.49,5,22.09v2.58c0,8.6-1.67,15.97-5,22.09-3.33,6.13-7.74,10.78-13.22,13.95-5.48,3.17-11.51,4.76-18.06,4.76-5.05,0-9.27-.59-12.66-1.77-3.39-1.18-6.13-2.74-8.22-4.68-2.1-1.94-3.74-3.87-4.92-5.81h-2.74v36.81c0,3.01-2.44,5.44-5.44,5.44h-7.66c-3.01,0-5.44-2.44-5.44-5.44ZM316.27,332.33c6.77,0,12.34-2.18,16.69-6.53,4.35-4.35,6.53-10.56,6.53-18.63v-1.61c0-8.17-2.2-14.41-6.61-18.71-4.41-4.3-9.95-6.45-16.61-6.45s-12.23,2.15-16.69,6.45c-4.46,4.3-6.69,10.54-6.69,18.71v1.61c0,8.06,2.23,14.27,6.69,18.63,4.46,4.35,10.02,6.53,16.69,6.53Z"/>
    <path class="cls-1" d="M380.57,254.9c-2.95-3.78-8.95-2.86-10.92,1.52h0c-.98,2.17-.68,4.7.78,6.59,1.99,2.57,3.64,5.47,4.85,8.65,1.21,3.18,1.91,6.44,2.13,9.68.16,2.38,1.63,4.46,3.8,5.44h0c4.38,1.96,9.47-1.35,9.16-6.13-.29-4.55-1.26-9.14-2.96-13.61-1.71-4.48-4.03-8.54-6.84-12.13Z"/>
  </g>
</svg>