<?xml version="1.0" encoding="UTF-8"?>
<svg id="Layer_1" xmlns="http://www.w3.org/2000/svg" xmlns:xlink="http://www.w3.org/1999/xlink" viewBox="0 0 566.93 566.93">
  <defs>
    <style>
      .cls-1 {
        fill: url(#linear-gradient-2);
      }

      .cls-2 {
        fill: #fff;
      }

      .cls-3 {
        fill: url(#linear-gradient-3);
      }

      .cls-4 {
        fill: url(#linear-gradient);
      }
    </style>
    <linearGradient id="linear-gradient" x1="58.97" y1="283.46" x2="507.96" y2="283.46" gradientUnits="userSpaceOnUse">
      <stop offset="0" stop-color="#55ad47"/>
      <stop offset="1" stop-color="#0e8642"/>
    </linearGradient>
    <linearGradient id="linear-gradient-2" x1="228.41" y1="156.55" x2="338.52" y2="156.55" xlink:href="#linear-gradient"/>
    <linearGradient id="linear-gradient-3" x1="125.61" y1="345.14" x2="441.32" y2="345.14" xlink:href="#linear-gradient"/>
  </defs>
  <g>
    <path class="cls-4" d="M491.78,475.99h0c-8.93,0-16.18-7.24-16.18-16.18v-241.55c0-52.45-42.52-94.97-94.97-94.97h-194.35c-52.45,0-94.97,42.52-94.97,94.97v241.55c0,8.93-7.24,16.18-16.18,16.18h0c-8.93,0-16.18-7.24-16.18-16.18v-241.55c0-70.32,57-127.32,127.32-127.32h194.35c70.32,0,127.32,57,127.32,127.32v241.55c0,8.93-7.24,16.18-16.18,16.18Z"/>
    <rect class="cls-1" x="228.41" y="142.97" width="110.11" height="27.16" rx="13.58" ry="13.58"/>
  </g>
  <g>
    <rect class="cls-3" x="125.61" y="247.25" width="315.7" height="195.78" rx="27.5" ry="27.5"/>
    <g>
      <path class="cls-2" d="M367.35,285.1c-2.3-1.61-5.51-.7-6.66,1.85h0c-.86,1.92-.3,4.22,1.43,5.43,10.25,7.17,18.53,17.36,23.31,29.91,4.78,12.55,5.38,25.67,2.5,37.84-.49,2.05.62,4.14,2.54,5h0c2.56,1.14,5.56-.31,6.2-3.05,3.26-13.83,2.56-28.72-2.87-42.98-5.43-14.26-14.82-25.84-26.45-34Z"/>
      <path class="cls-2" d="M359.45,303.37c-2.26-1.85-5.68-.97-6.88,1.69h0c-.81,1.82-.33,3.97,1.21,5.24,5.91,4.85,10.67,11.25,13.57,18.88,2.91,7.63,3.61,15.57,2.42,23.12-.31,1.97.76,3.9,2.58,4.72h0c2.66,1.2,5.8-.43,6.26-3.31,1.44-9.05.6-18.56-2.89-27.72-3.49-9.16-9.19-16.82-16.28-22.62Z"/>
      <path class="cls-2" d="M187.05,384.7v-62.05h-19.52c-2.08,0-3.76-1.68-3.76-3.76v-4.62c0-2.08,1.68-3.76,3.76-3.76h52.4c2.08,0,3.76,1.68,3.76,3.76v4.62c0,2.08-1.68,3.76-3.76,3.76h-19.52v62.05c0,2.08-1.68,3.76-3.76,3.76h-5.85c-2.08,0-3.76-1.68-3.76-3.76Z"/>
      <path class="cls-2" d="M233.15,390.02c-3.86,0-7.35-.69-10.47-2.06-3.12-1.37-5.59-3.36-7.41-5.96-1.82-2.6-2.73-5.79-2.73-9.58s.91-6.83,2.73-9.35c1.82-2.52,4.32-4.44,7.52-5.73,3.19-1.3,6.83-1.95,10.91-1.95h15.92v-3.34c0-2.9-.89-5.25-2.67-7.07-1.78-1.82-4.57-2.73-8.35-2.73s-6.51.87-8.41,2.62c-1.09,1.01-1.97,2.18-2.63,3.53-.85,1.74-2.78,2.65-4.61,2.05l-4.45-1.47c-2.18-.72-3.26-3.23-2.19-5.25.73-1.38,1.61-2.69,2.64-3.92,1.97-2.38,4.58-4.29,7.85-5.74,3.27-1.45,7.27-2.17,12.03-2.17,7.2,0,12.86,1.8,16.98,5.4,4.12,3.6,6.18,8.82,6.18,15.65v21.6c0,2.23,1.04,3.34,3.12,3.34h.92c2.08,0,3.76,1.68,3.76,3.76v3.06c0,2.08-1.68,3.76-3.76,3.76h-5.26c-2.67,0-4.86-.67-6.57-2-1.71-1.34-2.56-3.15-2.56-5.46v-.22h-1.89c-.45,1.04-1.22,2.3-2.34,3.79-1.11,1.49-2.8,2.77-5.07,3.84-2.27,1.08-5.33,1.61-9.19,1.61ZM235.26,379.55c4.23,0,7.68-1.21,10.36-3.62,2.67-2.41,4.01-5.66,4.01-9.74v-1.11h-15.14c-2.75,0-4.98.59-6.68,1.78-1.71,1.19-2.56,2.93-2.56,5.23s.89,4.03,2.67,5.4c1.78,1.37,4.23,2.06,7.35,2.06Z"/>
      <path class="cls-2" d="M277.39,406.97v-69.77c0-2.08,1.68-3.76,3.76-3.76h5.07c2.08,0,3.76,1.68,3.76,3.76v3.48h1.89c1.26-2.3,3.29-4.34,6.07-6.12,2.78-1.78,6.77-2.67,11.97-2.67,4.45,0,8.59,1.1,12.42,3.28,3.82,2.19,6.88,5.4,9.19,9.63,2.3,4.23,3.45,9.32,3.45,15.26v1.78c0,5.94-1.15,11.02-3.45,15.26-2.3,4.23-5.35,7.44-9.13,9.63-3.79,2.19-7.95,3.28-12.47,3.28-3.49,0-6.4-.41-8.74-1.22-2.34-.82-4.23-1.89-5.68-3.23-1.45-1.34-2.58-2.67-3.4-4.01h-1.89v25.42c0,2.08-1.68,3.76-3.76,3.76h-5.29c-2.08,0-3.76-1.68-3.76-3.76ZM306.12,378.88c4.68,0,8.52-1.5,11.53-4.51,3.01-3.01,4.51-7.29,4.51-12.86v-1.11c0-5.64-1.52-9.95-4.57-12.92-3.04-2.97-6.87-4.45-11.47-4.45s-8.44,1.49-11.52,4.45c-3.08,2.97-4.62,7.28-4.62,12.92v1.11c0,5.57,1.54,9.86,4.62,12.86,3.08,3.01,6.92,4.51,11.52,4.51Z"/>
      <path class="cls-2" d="M350.52,325.41c-2.04-2.61-6.18-1.97-7.54,1.05h0c-.68,1.5-.47,3.25.54,4.55,1.37,1.77,2.52,3.77,3.35,5.97.84,2.2,1.32,4.45,1.47,6.69.11,1.64,1.12,3.08,2.63,3.75h0c3.02,1.35,6.54-.93,6.32-4.23-.2-3.15-.87-6.31-2.05-9.4-1.18-3.09-2.78-5.9-4.72-8.38Z"/>
    </g>
  </g>
</svg>